<svg xmlns="http://www.w3.org/2000/svg" viewBox="0 0 800 500">
  <defs>
    <style>
      .bg { fill: #1e1e1e; }
      .text-title { fill: #ffffff; font-family: Arial, sans-serif; font-size: 20px; font-weight: bold; }
      .text-main { fill: #ffffff; font-family: Arial, sans-serif; font-size: 12px; }
      .text-label { fill: #9cdcfe; font-family: Arial, sans-serif; font-size: 10px; }
      .text-value { fill: #b5cea8; font-family: Arial, sans-serif; font-size: 11px; font-weight: bold; }
      .text-mode { fill: #ce93d8; font-family: Arial, sans-serif; font-size: 11px; font-weight: bold; }
      .wire { fill: none; stroke-width: 2; stroke-linecap: round; }
      .wire-red { stroke: #ef5350; }
      .wire-green { stroke: #81c784; }
      .wire-blue { stroke: #4fc3f7; }
      .wire-black { stroke: #424242; }
      .wire-yellow { stroke: #ffeb3b; }
      .wire-purple { stroke: #ce93d8; }
      .component { fill: #2d2d2d; stroke: #666666; stroke-width: 2; }
      .led-body { fill: #333333; stroke: #555555; stroke-width: 1; }
      .led-r { fill: #ef5350; fill-opacity: 0.9; }
      .led-g { fill: #81c784; fill-opacity: 0.9; }
      .led-b { fill: #4fc3f7; fill-opacity: 0.9; }
      .button { fill: #424242; stroke: #666666; stroke-width: 2; rx: 3; }
      .button-cap { fill: #555555; rx: 2; }
      .pot { fill: #455a64; stroke: #607d8b; stroke-width: 2; }
      .pot-knob { fill: #78909c; }
      .arduino { fill: #1565c0; stroke: #1976d2; stroke-width: 2; rx: 4; }
      .pin { fill: #333333; stroke: #555555; stroke-width: 1; }
      .box { fill: #2d2d2d; stroke: #444444; stroke-width: 1; rx: 4; }
      .box-mode { fill: #1a2a3a; stroke: #4fc3f7; stroke-width: 2; rx: 4; }
    </style>
  </defs>
  
  <!-- Fondo -->
  <rect class="bg" width="800" height="500"/>
  
  <!-- Título -->
  <text class="text-title" x="400" y="25" text-anchor="middle">🎨 Proyecto: Lámpara RGB Interactiva</text>
  <text class="text-label" x="400" y="42" text-anchor="middle">Control de color con potenciómetros y modos con botón</text>
  
  <!-- Arduino -->
  <rect class="arduino" x="20" y="80" width="90" height="180"/>
  <text class="text-main" x="65" y="105" text-anchor="middle" fill="#fff" font-weight="bold">ARDUINO</text>
  <text class="text-main" x="65" y="120" text-anchor="middle" fill="#fff">UNO</text>
  
  <!-- Pines Arduino (izquierda) -->
  <g transform="translate(105, 130)">
    <rect class="pin" x="0" y="0" width="20" height="12"/>
    <text class="text-label" x="10" y="10" text-anchor="middle" fill="#fff">~9</text>
    
    <rect class="pin" x="0" y="18" width="20" height="12"/>
    <text class="text-label" x="10" y="28" text-anchor="middle" fill="#fff">~10</text>
    
    <rect class="pin" x="0" y="36" width="20" height="12"/>
    <text class="text-label" x="10" y="46" text-anchor="middle" fill="#fff">~11</text>
    
    <rect class="pin" x="0" y="60" width="20" height="12"/>
    <text class="text-label" x="10" y="70" text-anchor="middle" fill="#fff">A0</text>
    
    <rect class="pin" x="0" y="78" width="20" height="12"/>
    <text class="text-label" x="10" y="88" text-anchor="middle" fill="#fff">A1</text>
    
    <rect class="pin" x="0" y="96" width="20" height="12"/>
    <text class="text-label" x="10" y="106" text-anchor="middle" fill="#fff">A2</text>
    
    <rect class="pin" x="0" y="120" width="20" height="12"/>
    <text class="text-label" x="10" y="130" text-anchor="middle" fill="#fff">2</text>
  </g>
  
  <!-- LED RGB Grande (representación visual) -->
  <g transform="translate(350, 100)">
    <ellipse class="led-body" cx="50" cy="50" rx="60" ry="60"/>
    <ellipse class="led-r" cx="35" cy="40" rx="18" ry="20"/>
    <ellipse class="led-g" cx="50" cy="40" rx="18" ry="20"/>
    <ellipse class="led-b" cx="65" cy="40" rx="18" ry="20"/>
    <text class="text-main" x="50" y="90" text-anchor="middle" fill="#fff">LED RGB</text>
  </g>
  
  <!-- Resistencias para LED -->
  <g transform="translate(260, 95)">
    <rect fill="#8d6e63" x="0" y="0" width="30" height="8" rx="2"/>
    <text class="text-label" x="15" y="-3" text-anchor="middle">220Ω</text>
    
    <rect fill="#8d6e63" x="0" y="20" width="30" height="8" rx="2"/>
    <rect fill="#8d6e63" x="0" y="40" width="30" height="8" rx="2"/>
  </g>
  
  <!-- Cables LED -->
  <path class="wire wire-red" d="M125,136 L200,136 L200,99 L260,99"/>
  <path class="wire wire-green" d="M125,154 L190,154 L190,119 L260,119"/>
  <path class="wire wire-blue" d="M125,172 L180,172 L180,139 L260,139"/>
  
  <!-- Cables de resistencias a LED -->
  <path class="wire wire-red" d="M290,99 L320,99 L320,120 L345,120"/>
  <path class="wire wire-green" d="M290,119 L330,119 L330,140 L360,140"/>
  <path class="wire wire-blue" d="M290,139 L340,139 L340,160 L375,160"/>
  
  <!-- Potenciómetros -->
  <g transform="translate(160, 300)">
    <!-- Pot 1 - Rojo -->
    <ellipse class="pot" cx="30" cy="30" rx="25" ry="25"/>
    <ellipse class="pot-knob" cx="30" cy="30" rx="10" ry="10"/>
    <line stroke="#fff" stroke-width="2" x1="30" y1="30" x2="30" y2="15"/>
    <text class="text-label" x="30" y="65" text-anchor="middle">POT R</text>
    <text class="text-label" x="30" y="77" text-anchor="middle" fill="#ef5350">A0</text>
  </g>
  
  <g transform="translate(240, 300)">
    <!-- Pot 2 - Verde -->
    <ellipse class="pot" cx="30" cy="30" rx="25" ry="25"/>
    <ellipse class="pot-knob" cx="30" cy="30" rx="10" ry="10"/>
    <line stroke="#fff" stroke-width="2" x1="30" y1="30" x2="40" y2="20"/>
    <text class="text-label" x="30" y="65" text-anchor="middle">POT G</text>
    <text class="text-label" x="30" y="77" text-anchor="middle" fill="#81c784">A1</text>
  </g>
  
  <g transform="translate(320, 300)">
    <!-- Pot 3 - Azul -->
    <ellipse class="pot" cx="30" cy="30" rx="25" ry="25"/>
    <ellipse class="pot-knob" cx="30" cy="30" rx="10" ry="10"/>
    <line stroke="#fff" stroke-width="2" x1="30" y1="30" x2="45" y2="30"/>
    <text class="text-label" x="30" y="65" text-anchor="middle">POT B</text>
    <text class="text-label" x="30" y="77" text-anchor="middle" fill="#4fc3f7">A2</text>
  </g>
  
  <!-- Cables de potenciómetros -->
  <path class="wire wire-purple" d="M125,196 L150,196 L150,330 L160,330"/>
  <path class="wire wire-purple" d="M125,214 L145,214 L145,340 L240,340 L240,330"/>
  <path class="wire wire-purple" d="M125,232 L140,232 L140,350 L320,350 L320,330"/>
  
  <!-- Botón de modo -->
  <g transform="translate(430, 300)">
    <rect class="button" x="0" y="10" width="40" height="30"/>
    <rect class="button-cap" x="10" y="15" width="20" height="20"/>
    <text class="text-label" x="20" y="55" text-anchor="middle">BOTÓN</text>
    <text class="text-label" x="20" y="67" text-anchor="middle">MODO</text>
    <text class="text-label" x="20" y="79" text-anchor="middle" fill="#ffb74d">D2</text>
  </g>
  
  <!-- Cable del botón -->
  <path class="wire wire-yellow" d="M125,256 L135,256 L135,365 L450,365 L450,340"/>
  
  <!-- Modos de operación -->
  <rect class="box-mode" x="520" y="70" width="260" height="200"/>
  <text class="text-main" x="650" y="95" text-anchor="middle" font-weight="bold">🎛️ Modos de Operación</text>
  
  <!-- Modo 1 -->
  <rect fill="#2a3a2a" x="535" y="110" width="230" height="45" rx="3"/>
  <text class="text-mode" x="550" y="130">MODO 1: Manual</text>
  <text class="text-main" x="550" y="148">Control directo R/G/B con potenciómetros</text>
  
  <!-- Modo 2 -->
  <rect fill="#3a2a2a" x="535" y="160" width="230" height="45" rx="3"/>
  <text class="text-mode" x="550" y="180">MODO 2: Arcoíris</text>
  <text class="text-main" x="550" y="198">Transición automática de colores</text>
  
  <!-- Modo 3 -->
  <rect fill="#2a2a3a" x="535" y="210" width="230" height="45" rx="3"/>
  <text class="text-mode" x="550" y="230">MODO 3: Respiración</text>
  <text class="text-main" x="550" y="248">Fade in/out con color seleccionado</text>
  
  <!-- Tabla de conexiones -->
  <rect class="box" x="520" y="285" width="260" height="195"/>
  <text class="text-main" x="650" y="305" text-anchor="middle" font-weight="bold">📋 Tabla de Conexiones</text>
  
  <text class="text-label" x="540" y="325">Componente</text>
  <text class="text-label" x="640" y="325">Pin Arduino</text>
  <text class="text-label" x="730" y="325">Tipo</text>
  
  <line stroke="#444" x1="530" y1="333" x2="770" y2="333"/>
  
  <text class="text-main" x="540" y="350">LED Rojo</text>
  <text class="text-value" x="640" y="350">~9</text>
  <text class="text-label" x="730" y="350">PWM</text>
  
  <text class="text-main" x="540" y="368">LED Verde</text>
  <text class="text-value" x="640" y="368">~10</text>
  <text class="text-label" x="730" y="368">PWM</text>
  
  <text class="text-main" x="540" y="386">LED Azul</text>
  <text class="text-value" x="640" y="386">~11</text>
  <text class="text-label" x="730" y="386">PWM</text>
  
  <text class="text-main" x="540" y="404">Pot Rojo</text>
  <text class="text-value" x="640" y="404">A0</text>
  <text class="text-label" x="730" y="404">Analog</text>
  
  <text class="text-main" x="540" y="422">Pot Verde</text>
  <text class="text-value" x="640" y="422">A1</text>
  <text class="text-label" x="730" y="422">Analog</text>
  
  <text class="text-main" x="540" y="440">Pot Azul</text>
  <text class="text-value" x="640" y="440">A2</text>
  <text class="text-label" x="730" y="440">Analog</text>
  
  <text class="text-main" x="540" y="458">Botón Modo</text>
  <text class="text-value" x="640" y="458">D2</text>
  <text class="text-label" x="730" y="458">Digital</text>
  
  <text class="text-main" x="540" y="476">GND</text>
  <text class="text-value" x="640" y="476">GND</text>
  <text class="text-label" x="730" y="476">-</text>
  
  <!-- Nota de compatibilidad -->
  <rect class="box" x="20" y="400" width="130" height="80"/>
  <text class="text-main" x="85" y="420" text-anchor="middle" font-weight="bold">📝 Notas</text>
  <text class="text-label" x="30" y="440">✅ Tinkercad</text>
  <text class="text-label" x="30" y="455">✅ Semana 3</text>
  <text class="text-label" x="30" y="470">⏱️ ~90 min</text>
  
  <!-- Lista de materiales -->
  <rect class="box" x="160" y="400" width="150" height="80"/>
  <text class="text-main" x="235" y="420" text-anchor="middle" font-weight="bold">🔧 Materiales</text>
  <text class="text-label" x="170" y="440">• 1 LED RGB (cátodo común)</text>
  <text class="text-label" x="170" y="455">• 3 Potenciómetros 10kΩ</text>
  <text class="text-label" x="170" y="470">• 1 Botón + 3 Resistencias 220Ω</text>
  
  <!-- Conceptos aplicados -->
  <rect class="box" x="320" y="400" width="180" height="80"/>
  <text class="text-main" x="410" y="420" text-anchor="middle" font-weight="bold">🎯 Conceptos Aplicados</text>
  <text class="text-label" x="330" y="440">• PWM (analogWrite)</text>
  <text class="text-label" x="330" y="455">• Entrada analógica (analogRead)</text>
  <text class="text-label" x="330" y="470">• Mapeo de valores (map)</text>
</svg>
